<mxfile host="65bd71144e">
    <diagram id="jy5Fmwt4aR5avQwbS5jl" name="Página-1">
        <mxGraphModel dx="1582" dy="749" grid="0" gridSize="10" guides="1" tooltips="1" connect="1" arrows="1" fold="1" page="1" pageScale="1" pageWidth="827" pageHeight="1169" math="0" shadow="0">
            <root>
                <mxCell id="0"/>
                <mxCell id="1" parent="0"/>
                <mxCell id="6" value="" style="rounded=0;whiteSpace=wrap;html=1;strokeColor=#000000;fontColor=#000000;fillColor=none;gradientColor=none;strokeWidth=2;dashed=1;fontSize=14;" parent="1" vertex="1">
                    <mxGeometry x="180" y="150" width="470" height="290" as="geometry"/>
                </mxCell>
                <mxCell id="16" style="edgeStyle=none;html=1;entryX=0;entryY=0.5;entryDx=0;entryDy=0;fontColor=#000000;strokeWidth=2;fontSize=14;" parent="1" target="5" edge="1">
                    <mxGeometry relative="1" as="geometry">
                        <mxPoint x="133.5" y="305" as="sourcePoint"/>
                    </mxGeometry>
                </mxCell>
                <mxCell id="4" value="Users" style="sketch=0;outlineConnect=0;strokeColor=#000000;fillColor=#141414;dashed=0;verticalLabelPosition=bottom;verticalAlign=top;align=center;html=1;fontSize=14;fontStyle=1;aspect=fixed;shape=mxgraph.aws4.illustration_users;pointerEvents=1" parent="1" vertex="1">
                    <mxGeometry x="33.5" y="265" width="80" height="80" as="geometry"/>
                </mxCell>
                <mxCell id="39" style="edgeStyle=none;html=1;exitX=1;exitY=0.5;exitDx=0;exitDy=0;entryX=0;entryY=0.5;entryDx=0;entryDy=0;strokeWidth=2;fontSize=14;" parent="1" source="5" target="30" edge="1">
                    <mxGeometry relative="1" as="geometry"/>
                </mxCell>
                <mxCell id="5" value="" style="shape=image;verticalLabelPosition=bottom;labelBackgroundColor=default;verticalAlign=top;aspect=fixed;imageAspect=0;image=https://mwunderling.com/images/traefik_2/traefikproxy-vertical-logo-color.png;clipPath=inset(15.67% 14.32% 24% 20.85%);fontSize=14;" parent="1" vertex="1">
                    <mxGeometry x="203.5" y="257.5" width="67.71" height="95" as="geometry"/>
                </mxCell>
                <mxCell id="13" value="Variação de Carga de Trabalho" style="text;html=1;strokeColor=none;fillColor=none;align=center;verticalAlign=middle;whiteSpace=wrap;rounded=0;dashed=1;fontColor=#000000;fontStyle=2;fontSize=14;" parent="1" vertex="1">
                    <mxGeometry x="10" y="378" width="135" height="30" as="geometry"/>
                </mxCell>
                <mxCell id="21" value="&lt;font style=&quot;font-size: 14px;&quot;&gt;Containers&lt;/font&gt;" style="rounded=0;whiteSpace=wrap;html=1;strokeColor=#000000;fontColor=#000000;fillColor=none;gradientColor=none;strokeWidth=2;dashed=1;fontStyle=1;fontSize=14;" parent="1" vertex="1">
                    <mxGeometry x="180" y="150" width="470" height="30" as="geometry"/>
                </mxCell>
                <mxCell id="22" value="" style="group;fontSize=14;" parent="1" vertex="1" connectable="0">
                    <mxGeometry x="483.5" y="200" width="140" height="210" as="geometry"/>
                </mxCell>
                <mxCell id="7" value="" style="rounded=0;whiteSpace=wrap;html=1;strokeColor=#000000;fontColor=#000000;fillColor=none;gradientColor=none;dashed=1;fontSize=14;" parent="22" vertex="1">
                    <mxGeometry width="140" height="210" as="geometry"/>
                </mxCell>
                <mxCell id="8" value="&lt;b style=&quot;font-size: 14px;&quot;&gt;Monitoramento&lt;/b&gt;" style="rounded=0;whiteSpace=wrap;html=1;strokeColor=#000000;fontColor=#000000;fillColor=none;gradientColor=none;dashed=1;fontSize=14;" parent="22" vertex="1">
                    <mxGeometry width="140" height="30" as="geometry"/>
                </mxCell>
                <mxCell id="9" value="" style="shape=image;verticalLabelPosition=bottom;labelBackgroundColor=default;verticalAlign=top;aspect=fixed;imageAspect=0;image=https://branditechture.agency/brand-logos/wp-content/uploads/2022/10/Grafana-1024x690.png;clipPath=inset(33.17% 11.67% 33.66% 9.67%);dashed=1;fontSize=14;" parent="22" vertex="1">
                    <mxGeometry x="17.159999999999968" y="170" width="105.68" height="30" as="geometry"/>
                </mxCell>
                <mxCell id="19" style="edgeStyle=none;html=1;exitX=0.5;exitY=1;exitDx=0;exitDy=0;entryX=0.5;entryY=0;entryDx=0;entryDy=0;strokeWidth=2;startArrow=classic;startFill=1;fontSize=14;" parent="22" source="12" target="9" edge="1">
                    <mxGeometry relative="1" as="geometry"/>
                </mxCell>
                <mxCell id="12" value="" style="shape=image;verticalLabelPosition=bottom;labelBackgroundColor=default;verticalAlign=top;aspect=fixed;imageAspect=0;image=https://tsh.io/wp-content/uploads/2022/05/prometheus-tool-logo.png;dashed=1;clipPath=inset(22.33% 1.33% 20.67% 0.33%);fontSize=14;" parent="22" vertex="1">
                    <mxGeometry x="25.000000000000114" y="40" width="90" height="52.16949152542373" as="geometry"/>
                </mxCell>
                <mxCell id="35" style="edgeStyle=none;html=1;exitX=1;exitY=0.5;exitDx=0;exitDy=0;entryX=0;entryY=0.5;entryDx=0;entryDy=0;strokeWidth=2;fontSize=14;" parent="1" source="30" target="7" edge="1">
                    <mxGeometry relative="1" as="geometry"/>
                </mxCell>
                <mxCell id="30" value="" style="rounded=0;whiteSpace=wrap;html=1;strokeColor=#000000;fontColor=#000000;fillColor=none;gradientColor=none;dashed=1;fontSize=14;" parent="1" vertex="1">
                    <mxGeometry x="313.5" y="200" width="120" height="210" as="geometry"/>
                </mxCell>
                <mxCell id="31" value="&lt;b style=&quot;font-size: 14px;&quot;&gt;Aplicação&lt;/b&gt;" style="rounded=0;whiteSpace=wrap;html=1;strokeColor=#000000;fontColor=#000000;fillColor=none;gradientColor=none;dashed=1;fontSize=14;" parent="1" vertex="1">
                    <mxGeometry x="313.5" y="200" width="120" height="30" as="geometry"/>
                </mxCell>
                <mxCell id="36" value="" style="shape=image;verticalLabelPosition=bottom;labelBackgroundColor=default;verticalAlign=top;aspect=fixed;imageAspect=0;image=https://www.bloorresearch.com/wp-content/uploads/2013/03/MONGO-DB-logo-300x470--x.png;clipPath=inset(31.68% 5.67% 25.92% 7.67%);fontSize=14;" parent="1" vertex="1">
                    <mxGeometry x="319.44" y="325" width="108.12" height="33.69" as="geometry"/>
                </mxCell>
                <mxCell id="38" value="" style="shape=image;verticalLabelPosition=bottom;labelBackgroundColor=default;verticalAlign=top;aspect=fixed;imageAspect=0;image=https://www.interviewbit.com/blog/wp-content/uploads/2021/09/frontend.jpg;clipPath=inset(22% 9.63% 13.67% 7.41%);fontSize=14;" parent="1" vertex="1">
                    <mxGeometry x="343.2" y="240" width="60.6" height="52.21" as="geometry"/>
                </mxCell>
                <mxCell id="41" value="Sock Shop" style="text;strokeColor=none;align=center;fillColor=none;html=1;verticalAlign=middle;whiteSpace=wrap;rounded=0;fontStyle=1" parent="1" vertex="1">
                    <mxGeometry x="324.5" y="286" width="98" height="30" as="geometry"/>
                </mxCell>
                <mxCell id="42" value="" style="shape=image;verticalLabelPosition=bottom;labelBackgroundColor=default;verticalAlign=top;aspect=fixed;imageAspect=0;image=data:image/png,iVBORw0KGgoAAAANSUhEUgAAAVMAAABNCAYAAAAb4IcrAAAAAXNSR0IArs4c6QAAIABJREFUeF7svWdAFVcXNrqmnc6hKCAgKmLDgr0mmth77L23WLDGWGKJaFSwoNiw9y5W7Ipd7Bp7RVFRVDqcOv3eNXgMGjUmr+/3vbn3zJ9Ezsyevdfe+9mrPGsNAc7LKQGnBJwScErgP5YA8R+34GzAKQGnBJwScEoAnGDqXAROCTgl4JTAV5CAE0y/ghCdTTgl4JSAUwJOMHWuAacEnBJwSuArSMAJpl9BiM4mnBJwSsApASeYOteAUwJOCTgl8BUk4ATTryBEZxNOCTgl4JSAE0yda8ApAacEnBL4ChJwgulXEKKzCacEnBJwSsAJps414JSAUwJOCXwFCTjB9CsI0dmEUwJOCTgl4ART5xpwSsApAacEvoIE/ifBVJZlEsdGEIT0FcbobMIpAacEnBL4r0vgfwZMz8myVgTQWAEYE4CrDkAiAQh3gIyqBJH2X5eE8wVOCTgl4JTAfyCB/wkwPSHL9Kmrd2dcT7V+n8UYXbPtkodeo7KorFlsIbX4oH6JAss7FPDe/R+M0/moUwJOCTgl8F+VwP8EmD6SZfVPp2/cekwZi2bIWgCVHrRAAZWVxnuzGentKxYbOdRXuzG3JA7uPNKuyncVD+fJkyf7vyohZ+NOCTgl4JTAF0jg/wiYyq8eefK37re5//h55eCBIX0+7NcZWXaf+vuL3++SLgVTBBp4oEFHqMBDZiGfNS2tYeG84yf7qZcRBCHjs2HTZy04tOdoXwFktkWnFgt6dekw09PT0/QF43Xe4pSAUwL/IxKQZRnxhyYIgv8f6dJ/1I3/KpjK8hUGrryqf2nNqpliqqWYR/GyT4pP7hFMEKW53L2+Isuu4y+9uHpJoAI5F0/gSBpElgWdLRsKydbUJv55h88sZFA0034DRkRfvXCpuVbnrjZZbKDVqqWMzDRx0KCBU4YP7Tn1P5KG82GnBJwS+K9JAAPLGFR+G2BWA4AdX4ZKkizLaoIg2P/ay/8PNPxfA1P59Wv965g1YW/OHOiWV2LdGEIL1rz+bwqNnlCa8C2emntsF2TZOPLEo3v3XTx9TVoXjuM4lU6lgjzAZebJTH7RNCDfuFa+6tNhvYdtf/ng0feERNBWVgCgaKAkGtQMARxvgfz+XveHDx84sHbtmif/D8jO+QqnBJwS+AcSWLp05ciVK9eEcnZBa2etlujtW2uWKVPi5j9o6n/qkf8KmMqPbgVeWBi525tNKa19fQ9cSAE40ABboHRSvvGzKhGehV7llsLvsuw2+NyLi/dc8vini5KWUWtBz9lBk5EqeJozr3SvHBy+ftiwUOLls2AVK5Hm7GzQuLkBz4vAAAMyz4LOIALPm8DFqHkYHR1d2elL/Z9aZ87OOCXwTgJLlqwds3TJynCdTgcEyOLqtcuCixYtePffLqKvDqbyratBJ6Mi9nuZUwKM2UngLqUBKfHA6/NApm/JxALDp1clCpV8D0xRMx1zM/XMebsULOj0srtGn00lvlAXooiLxVT0teMrF/cUbt90zytIwHASEKQMEkkAkATIdhFUjAQkaYH8fnnuLF2xtJqXl5f53z4xzv47JfD/VQksXbp+1NIla2byPA8E8LBx89qSZcoUu/dvH+9XB9PEJVP3Zl483czHlg4q82vQ60VIt1pAzhMA9oLlH/mPmFyVcCuYkVtwR2XZdcL1lxdvinRxtdaFlZJTyVISeboEzWTvWBBZj3j9UuctcqTKbidUQIKriwFep70CjZoChqRAr6WhYAGP06tDxzcgihb9V/td/u0Lytl/pwQ+JwH0ly5bsnn0unVbwgRBAJLkhUWLF1aqUKH4jX+75L4qmMrybVVG1KbTySf2VfUTzaATLWAjrGAhGTBrfYELrPKwxIjZVQgPj6zcgsNo/rgrT+OekJoAUiQsLpmW+Jo645m1v04caeRYSWuzUEZKBpJjgaEYEHk7ULQIJCWDiiKhTMli+xavmtf83z4Zzv47JfD/BwksXbpp1OJFq2aqVCrFNbdpy+biQUH5H/7bx/6VwfQKY1285WTyyX01vFgTqCQrmGUOeI0RRGMhsPiViQ8cMrU88YEZfkWWdZPO3rmcKKm8aRt/s6hGd3nvlPDBeSwWnUEWJQ2IpMRZgSRkUNNqEAU7cLwJdFoVtG/TZsGIsYOGfmoi5CdXgxPv3m1RoFm33/7tk+Xsv1MC/1+QwLJlG8esXb0t3GazAUmy8qo1a0oGBwfc/7eP7euC6e3bKvbUqtjkk/tr5uVMoBJZoHQaSBcIyJZdQSpW5VHhwVPKEv7+ttyCuyLLTOT+i7vMjIskmyxpe5Ys7+FnsRM+BAGi3SQTIBI0DcDxdhDtHHi4G8HGmWDY0JBhXbq3nf9JIL1zvOrRFQu2A8ca63fp3QP8fQ8T/jXee/e/fQKd/XdK4N8mgZUrNw2fG7F0rkajBQCbvGrNspLBwcWdYJp7IuWEBI0QsyTm9Zm99fPydlDzNuAlHliSAdLoDaZCpZ/kGz25AuER+J6Zj21Mibny66U7D2vGxR6vpmXtaleOo8BmJnU6DfCCDShCAq2GBsFqB0FgYcr0X9s3a9Yg+mMLCd0NcP5B08ubVka4WF4FcJwdxDz+CeWHTGhGFK31r48a/t3Ng+RoR8LD3332a9z/f/v9X2MM/6tt/BPZ/pNn/tPxJyQkaAoVKsTiOpw3b3noujXRkzQaDc+yWeSG1UtLlShb4sFfvcPBU30Pc/4vr+3cffm6munr13ph67w9yaf31/XgbQqYEiABGAyQaeOBrvDtE0O/MZUhf6mM3Js7SZZ1Pw+L2HPu0vXveLuJMjAUoZIliaZkkuU5QqOhwZydBioSIL+3V/rMsLDvgysF3fo4kF5hxGPx7a9uWTXLJSPRx5vIhiyLGWS/YpCnWoOtrn2mdv671ag2btz2Y2p6aiGGUsskrWZN2WaDVqczV61c9VDlysUvfW4R3Lp1P/j48TPtGUot2mx2nUqntgEIEFik8LUmDWt/st6ALMtUcnJy3k2bYkLUarUgigRBETItSJwkyiw1YljIhM+9Nz4+scilS1e/f/HiZcn09HSvlJRkXy+vPK+MRmN6mTKl4po2bbD1PwHYhITkfPHx9yveeXC/SkZ6hldqarofy3E6nUpt9fLySixYsMA9Ly/vZ2XLfns8Xz7C8rG+Rs5ZGE4xGuRoUBRF2AhCJghZJMuUCTpRs2b1L+IK37x5r0zcmXOtbSyrN+g0ZpZlVSgoEkh+0OAfp3xORrdvPyx34dLlb5NeJwemp6UVkiVJrddqTb6+fg8rVCgXW716+TNfslZkWVYRBPFeIspfAYPjdwewfQwovrQNvE+WZcwkEv7qmUePkByf5JWd/cbbaDRmBgYGJhAEIf7Vc1/y+6dA+sO/L168euK6tdFTrBY7MIwofimYfkkfPo4JfygTCQkJbi9epBV3y+eaWrpIkcR/Om8fe8/XBdPERA9hR1RM8pm93+TleFDxLAApghk1Q50O5FJVktxGjytFuJfPfLsAmKSkJJ8Bg8fuffI4M1ijNkoysDJQEmnnbLJMkaRAyKBiCFATPLi7aJ9Gzpxaq0yZMokfFdrt2wbpybmQy9HbfslrzXDNT9pAbX0NPClDmtEbHpLumbVGzvqWKPftnb8zMRMnTV0Ze+xUb5uVBZKkgGHUYDZZoUXzRpumh43r8rm2IiOXzly9av0oWqUDScqhdVEUQEDhQte3bV5Z/nPPbt++r3d4WMRKgqBA4AFICkClIiGvp+uDmJhtQW8zR5SsEkc72/cc7rF8yYrQ16/fFCJJGmiaBvRN6fV6EAQO0OmfnZ0FoijK7dq3Xj+g348T/fw8nn+pPK5de1A2PDxs+bOnLypbLBbQ6HUgSCKATCrvAlkGjNLiRVEESLwA33xbI2bgwAGhpUoV+j33e9q26XTnxYvUkpyQMzaeZ4GmKahUqcLJpYsjan+uTw7wmDUjau669RuGa7VaIEgAUeRBo1GBp1eeG7t2bi33dp0pmjlu6pSUFP3OnYeGb9u2fXjym5Q8ap0WeAGpdSRQFMqZB6TsIAfS1dWQ3a5Nm4hmzX5YlD+/8b3KZbIsM5gGOWnStOXPnycFCoJo0OvVqUuWzGvyJbJMTMzyGDVq2AGNxiBIQDAUAbaffho5sEyZQl9EEZoePjfi6bNnQRIv6CgaLEuXLGz6qfeeOnWtVlzcubbn4uJaJb54nt/NzSBYrNkIvqBWGYR8+Xzjy5cPPti+fdtFRYsWePxX/V++cvXw83EXmkkggyxI8tp1K+rnOhzIBw9elD64/2jHN2+S8r9Ieh7k7u6StGBBRAvHPYuXrh27ZPHaMK1KK4uiRVq/alWpEmUL/6Vm+nYuVdOnR4Q/fhwfLIsiSTEEGVg08MQvY8ZM/li/b9+OL7J27dpRN27caJyZmemD6au4Pl1dXW0pKWlaL698L8uXL3+ySZNGG+vWrX7wr8b+ud+/Lpi+euVp3xGxJ+XUvup5ORFUHA+iLIHMECCoVJDhE5icf8zyQg6f6YsXL/J36t7rLM9RBSnOCNmZ2UBrCFHjphdfZaTQGhdXiVKpaXNmGpQqXuD6ovC5tQMC3BUg/vCSn5724U+c/Pl2bOyPbnarwZsUgcxKAQ1jA6BISKENkKjzAf+WvcK92vb75e8I7eTJ881DhvwUQ9OMAmouLq7AcRzotWrb6TN79J/T8Dp3/vHqvbvxFUharWxYu90GWh0DNpsFTp2IcfP4gNmQu18DBow4evPG/XoWMwsUZntRWJRQgBYtG0VNmPBziOPe27Ks8k4F9bARAw/evHnrGzc3DzBlY6qtFqxWqwKg2F8EO+wDAo5arQYgJLCasmFQyICxAwZ0m/FXMpk2bfacjRu3jTC6uANNaYATEQUJBTxlWca0QEBDBA8NADw0KNCoaLDbrcCxNhg6dMjofv07z3IA3NKl60OXr9jwK8cJOUCMDxMCyCDAsSN7XL8k8aJhg/YvM9JNvjKIwLI2UKsZ4AU7DBo0cOyPP74/psePk4v26dP7hCnb6ocHokwQwIuS0k/sP44Dqz+gjPBCOYEkgIuL3jRtypROtepU2v+27++0wNDQ2at27dzdS6PF+QVYunRhcHDwx62m3PLds+dwl/Dw2RtsdkkZu8iz0LtPj9DBg3uGfYm2VKnq9zaeEzVqhoFy5YJPLVsW+f2HfcvIyHCbMmXOmrNnzv9AUQyB70EZ2VkLoDKK/yZAA5gij30XRZ7/oUXTlaGho38iCOKTsYUJE6YuO3ToSD98XuBZuHI1TsGR65cfVPktLGzZgwePy5AETWo0GoV1ozeoMmJj93k4xr9i1eafly5ZOwvnXUWJ0vpVK0t+CZii9j529G8r4+LiulosFpqmSQgsVvDs/HkRjZFbnlsDfvo0xWfBgnkzzpw51wkBFOcU9wCuTZxv3BM43ypGq8x9dnYmBJcNPj5jxrTu/v55X/7VXvjY718XTF/He5li5m1NObn/ey8bgJoTQCBpILUqMHECkKUq3/foO708ERBgf/ToaflOPfsdBBXpbc6yAc3pQKfWyaRatmVasklCrycEICjBLtKVK5Q7PWP8bw0DAggll/dPQPr4imv6rhXbhYe365EpGeBCEMDa7KBjZBCtqUDrdJACekg1+sIzlwJ3m0atL/Ml5pvjPSkpKS71G7bJ1mj0CphyHA8arR54zgbrVy4tX7p8wPWP9QsntFXLdklqlR54VN5kAtB/6+pmAJMlE2ZHhLVoUKd6zEfHJMtknTo/pGZl2N0liVA0S3yW5cywcNG8erVqVTjmeO61yeTVoWXXK2aT1Z+mVWCx2IAkGGXRIGjgAmJZ1KqVPGjAejH4m8VsAndXF8jKSoNBIYMmhIR0n/apRTRgwIjtN27cboPtWi0cCIIMFLYNIsgkgTW+FBBSABXzreUcZdlqM4NGowatmgGzORNmzQhr36BxTcXXfeNGfOlu3fvfohkNaNQMcBwLBCkqPvGZ4dNb1q//zZ7PLerbtx+U7dJp4HWjmyekp6eCSk2BWkMpB9WO6M0FihTxe2fBXLx4p+bQ4SMO8byow/nIyMgEjVoHIpbOIUlA+MRNhXJBkJBFAXiBBVmWQKdXgc1sgjlzZzesW7faEcwjBwAe19CJE5fqjR417qgsiyDJIvTv3+eX/v17hP/VZpwwYdragweOdicoHaBiz6hIKFa88KX1a+dX/atnL168V71Xn97njEY3sFvMMGHi+B/btGm4Mveafvr0aVD79t3jJJFyF3gSVCq1sgZweihaBoOL2mI2W3WErCGwFjvDkGBnraDVMuDr531j9sKZLQN8fJ5+rC+TJs1euH/f/hAEI51WkxF3/ojnimWbQiIj581zMeYBPGNx3eH7JJkFo6su++TJvW4OpWPRWzOfZXlgCElau2FNiZIl/R99btxoCfwyauryg4cP9UAgREuoVOmg07MiFjTz9CTeK3L0+HFi0a5de1+gKMrDbLLkHBoEoewDjUZjtVgsOkEQZJVKI3ACMPi7TqNSDnOClMwbNqwpExDw8bF/ro9fF0yz7+XJ3rJ4c+rJA/U97QKoOAlEkgILzwHj4g5CQPCdvD/+9s2ZJ6+//Xlc6FqBpvPYBDugGasGjUyRjD3LnsWQBhc2XQSC1hnszRo3Pt+sXt2IFuV8TnwUdB4c83uxL3qJ7XpcM216KuSl1cAIBMhAgCCLQKkksJIMpFOu8Ebrba7W66eB4Om7jSj9frGVv1rA/fuPPHHx8pXvQaZBp3OBtPRMcDUaoE/PzmP6D+w882PPHzhwuuXECVN20ZQa7JwykYqpjZuUUTPQqmWThRPGDRmC/tEP/Vbnz9+oMGzoT1dFgQKCoIGh1WC1ZYNaQwoXLx1xAQDFmZ+cLBv6Dex9JvH5y3II1jkLmQGVSgNWqxmVcuAFAbQaBD4ZRF4EgiQVYKcpAljWDm5GA2RmpsPiJQvrfvNN2eMfjuX48bNNRo4cs1+ndYWsTAtotTrQavWQkZUFjIpChAZcSAhGsoRgTeT8vywrGjACKiZXqDU0UKSUvXnrwXz+/jmaT8tW/eJfJL4KRJngRkf5ICA2qFdvY1jYuK6fm5dFC9aMX71u21SOld5ppCQlQUBAwYc7olcVdzybkJBRqE271rfVaq3ebuOUNGSDwQU4VgCKoRWNBfusbFJ0NLGY90EqbdrsFuUwoAgcD2/Zu293ES8vw2tH2+gvrVC+NovjRBCvVr3q6aVLI777q/XUoEHrN2mpmV6CRAFFMoo2jn0/uP+oi5cX8dkMvt/CFs7cvSNmFIIDQxH8xk0bgooW9X7s0Mxev37t1bJlh0c0rTVazBxoNXqw2+3QsuUPC9t3bDeneHHvpw5gu3z5UfkD+47037V7e388ZNFFYrVZoHDhgjd37dpU9uNgOivqwP7DA/E3UeAsE8aP7x8WHrYWPTsEyYg2Gwtly1a4oqIZ84uXCaVY3iKdOnXQz9HW6rXbhkXMXhSpU+tAlu3Cug0rSgUFBX6WZzpubNjK48eP9UYXDB7axUuUuDh/yrSGHoHvc9bxHQ0btH3IsmzRtLQ0MBgMrEarSW7Rovn64OCKx8uU8b/kqDB38eL9Slcv/97g2IkTXZ88fhiUY/67AKOiE48fjwn8u9Wsvi6Ypj0yshuXb009e6iRC2sCtcgrWpDMqCGNI8ClQp3HCQHfLh00d9UkQmvUZ9vQp0qARMlAqCjWxvOESmNQpQJlTzG4U827d7+oU8v6OsHFQ38smu9PGpx8+3TJpG3Ld5nuXSpmJO3ggj46Ow+UXQK9yqBop3YtBZlaA7zR+6ZU6T2iP1Gj8a6/Wugf+33Vqo0jFi5cOodWaRXtVJJRC5OhVo3KByPnT2n+MSf+1CkLlu7cs/9Hhz9REDkFYERRVIDV18/z8e6dq4s4/G+5gwhRS9aPWbFiTTiCt4zaE76PlKFq5XIHoxaHNXNoIdOmz1+4ZWtMiJpBc41S7kPzHfumUhMZ7Vo3iypUJP9933xeSWmZ2ca40+eaHjpyrKsoUBp0WyCIoOsBfYRe3h7xe/esK/rh+IcPG3Po7OnLDUWRAEalBp7nlI1vNBoymzZpvKRFq9YrihTxSsgpAESIcXE3a+0/eKzzoYOHfqQomlBACx3FBG5+gNDJ41s3blxTmYdFC9ZPXLJ89RR8P8rFareBwaADFUNZz57eq//cXPXoMfjyvfsJlaw2DjRqGgTRDgadWurQoV3okCF93vGK23Xsf/3x44SyqIHYrawCmjQJCmj6+vo+adWy9TJvn3wP3N1d01JTUwNij59qeerkqRYatY7EQwfdFOiukGQemjStu23q1HEdcvdrYMiYmMsXrjWnKRVYLSbpyLFTxk8F3fC5u3efl+7SrectPHhUKhXv4+OT8vTJE1+Vioap06a0atiwxkcDk4710bZtz3vxj1+WwPHk98vzYPfuDSVyH8ghISOPXLxwvT4eCHiPm5vxQcScqW1KlSr6yVjB6dOXv5k8ecpWs9XuJ4poyfDQs2v32SNH9R314RyMGzdtydEjJ/qDTEuiwJFqNcPZ7GZVAf/8dwcOHDSxcbPvduZ+5kNlYenSdaOXLts4g5TR/ubF5auXlMF00k8FsEKnRC7etX3nAFwjLGeFkiVLXJw7d1r9j5Xd3LfnRMdfQ6dsxvXG86xYt953G8aP/2nY59xpaGm0a9fr8ovEl2XQ9YB7YlDIgNF9+rRXXFJfen1dME2+bRA2bdmaevZgEx2XCWrJBjT61EgVZIkq4AIrSSHbz0qpbgVomTYCK+NiokWOkAWeliSWodXJFp4UfQuk1Rgw6IpNqympAgvTOCig/8h8xvfAVL53puKtFZFrtI9vl/ZlBCXHF80UEAG0tAFongCWVkOqiw4y3DxN5fqPbE4ENzj1pYL58L67d+NL9+zZ54adA5KhtegRVACLpiXbhXMH3T9WPqx+/faJaWnm/NgW9s1gMIAoCjm+OaCBoiXYs3mVf/6i+V/k0nSUYEn3noNP3rlz/ztJzPHnoXaBvsChIf2Gde/Zej4uvMTEVJ8fWrZ9QRBaPJFAFGVFy6FoAooVKXB28ax5LVz9iXRsO/dCffDgRdkePfufsNk4d5phFK3FxWBQzOyJE0Z3btWq7uZc/WEqVqhhA0lNqdV6RQtFLZKiJW716qUVS5Yscju3rJKTkw2O2gijx81YfuRgbF+KVOWYWbIANClD126dJg4Z0mMajvP27wnl+vQfeNXG8iRqd+hjx4sEGRYumFu9WrWSFz42Z0+ePCnYpl2vBElWEaIggYtBCxZrFjCELG3ZthELZ9zBQ+rMmZu1Bg4eGqvR6MBsNoO7q5ui/dpMZujSrcOiX8YN+Zkg3ncf4XP7959r8+uk3zbznAjog7ZZTCCKHNCMJEdv3xRYqFC+BEcEfu2G6EELI5cv4jkJXF2Mwi/jRrdt1LTank+Bw9rV24fNmb8wEn3aVatW3efuZkw5dOBwL9S66tWpu2nG7PF/Cmo6AOnZs0z35s2aptMqF0WT79urQ+jAkF7vgi+XL9+uMmjQkIscm7NmXIz6hB07t1Y2Gv/60z/37z8p3qlLr1uSRDAuBndcF6ZtW6OLFi5seJN7DiZMmLbkwP7j/YFklCgcslPKlC21Jyx8brcPTe6PzV1uMJVFK7d248qqpUsX+6irbMKvs5Zt376zn4vBFUSJh5IlisVNmxbWvGBBt/dS0h3vGdB/zM5rV2+2wjWq1aozdu7aViJfPpfkD/vxIfvh0qWbtbp163XKM6+XYqlUrFTp8OLFMxr9Hbz4umCqUKMWbEs9g2CapYAp+s4EWg02ygWs/sHwy5Gb0lMmDykxRhCBkEkKxEyrjZIYDVj0Rkg3uhKNhg07He/iWjMTRMmVsGY29M87bbaf2zyHNiZfOPjtzXXzN+jSXxb0MGeCh4oCzmoBFaMG1OQkggEzT0G2mwck+eZ7WGX4T03AvwZSQP6jD/Q1btwm/tWb9ECSUL0DUwAO5kfOqfXNN8FnHaYTLvwnT14GdurY554kM0o0g+VsSgBJ8cdhsAZo4AUrTP1tXMfmzettzT1p6KNt+kOXFJ6V1ASoFLMdwZimCWnb1g0lAgO9HuGGn79wycQtW3aP43igJPRhUhhgYKFI0SJ3165e8p2LC2AEGt+PEX8+t4awcs3OkGVLVi3khRxWjIw+XRAhqFiRq5u3RlVy9OfBgweFu3Xt9Yim9KTNygFB0QoYVate8ciyZZENc4GuBgC43DLeFXOy06SJkzehrxm1TjxINCoSqlarFB0ZObWDQ15tWvd+eP9hfFEEPAzJ470kIUH7Dq3njh098KePLeiYmGOdpkydvgHly9o5BUxRM/XxzHN37/5tpRzPtO/Q78qLpDcV7XYO8D4Dsg8EDiqVK79nyfLwVm9lowgh9wZD831SaOT8o0dP9s/MyAZXF2RD8EqArHWb5pHjxg0f4XgHRuZb/NAyTQnK2Tlo17Ft1PgJA98FCD/sf/fuIXG/37hVAzXk4SOGDnBx0SfPDp+zE7Uio8ElJfbEdq9PUaU2bdrTY/68qDUmiwIW8orlCyuWK1f0HUvit98i5u/cuXsITSEhHuRfxo3u3Lp1vS1fCgpzIlf8tmVL9ATWLirm9OD+fUf36d9+Vu56o7/+Oj3qwP4TA4FkRN5mo/Lly5t46Oi2ol9ajzQ3mFIUzy9fuagiBu0+BLjxk2Yt2r/3wCB0ccmiCF5eea9v3LSptrs78dEgNI6xb+/RB69fv9kI+250NbyKPbbNN/fYP3zH29qqyJ2SBw4cttdu5zw4jpO9vb2fzZkz/bNMnQ9l+nXBNClJJ2xbtD317MHGCKYq2QZqigKbTIJJ1oO9cDkYc+B3eKn1kmS1Ucq2cQQ67kk3D+6NQImSfyG+bsjAjIcSFE5Qa0DWUODKpma2D/QeN9PLdQmkPjDAtStNbmxZHe4hZBTSmTPATZBBtlvEX+7UAAAgAElEQVSBdnUFPssEdpECdd788IJjQFu+4h2f3r0aEv7l3ovOJcqyNgtALP03uYHjxv629sTJuO4sLwPIlAI+WjUtt2rdNHzUqEHjcm+A6Oj9vWbPWrDcZpcoJaqtVUkMQ6eZTCZPnIQczRSgYd3qW6aGTcSI47vr2LG4OqPHTjom8OiLZIBhKEUr9cvv/WhfzPoSDsBq2rTNo6fPXxUhKQaPJSVIxQusMGBAvxF9e7dfmAvo3qNPOf5epWpTCy8KOoqkgbPziubM2swQu3Oru/tb1kRiYqLH7t0xQ2lSI6IXRqvXc7IoyYUK57/ToEGOqf7hYsVNjOb+4dgL9ceOnnAEgxEYtEMwddGroWSp4rErVkS+o9NERCybsWnz9p8lCUhRInKCQBQo4929c3WxjwHB0KG/7L1w6VozScrxeVKkDCoaoHfPbuP7D+oxHZ9JSsrO27xFyxQgmJzDi+cx2oCgyK9bsaJ6cMWCVz/o+3tyirt0u/KQgSMv8bwAahr90IwC2Hk9PRIPHNhaIPez7dr0ufX8+avSrI2FwCKF4nfsXvkndwnen5goa9u1bZDNiRKNa3/92rWlPDwKPG3apLaFohigSYpfunhJtbKVCl372LhHjpy0+czpcx05QYL8vvme7d23AUFMqVSPh2WTJu1emk1Wb/RbqtXqrLNx+72U9faFa/12fGKRTm26PMIgHQJSiSKFrq7buOjd4YpthYbOWHxg//EBLC8h95vr1r1T+NDhvSd9KWArVaOWbZiJZj5BcMLW9RuLBAT5IOfznbLz0+jJK86dPddHFAhl3sqULHlp/sL5DT8HpPj+wQMnbb946VIrQcC6cqJp246tpYoUyfNRKmWu/aHELHIfGLIsaz/HaPjYWL8+mG5fsDP19OGGDjCVOA54SgWSwRtMfqVh+K5zkOJegM2wCJTeI68ogMwkyqRNLF5aqt673/NXtKrUa5KCNIIEDxc1uGe/4noU9WrXK6/9uMuxo6Pvr1k2xtOcotJTLKgEARiOAIogQAAzCIwKQOcFCawatOW/31e4U98+RJEiioqflJSk8/HxYe8AUKUA5NtZWQXKuLn9Jacut9COH41rOnLUL/uARG1Ro2xikHgoXbrExQ0bF1fLbdaNGxu2ft++I10xDxYXpVarEVq3aTV9e3T0KLud0+LmRm6lp4f+1cHD0f6K8/7tgg+fOW/W1i17fwYZ6TYIAiy4uarFRg3rLvpl/JARuOgeP35ZoHOnHk8kgqRIipFZm51AM4ggZC5i1sxOkiSaXF3dBACBR9aRxSKRoshr3dw8sk0mG0MwFDN39ryoJ08TFLBiSAxQoxorQfjMqfXq1PmDLeDYqJ8id+Npn5GRoX/yJLHE/fv3qjx8+KTi44TEog8exFeRRJJGbi4GS1Cz06oJqFip7NGoqIgGjnZ///1h6SHDfr5sMdsZdJ8gqFCkhJFgafu65YEBQQHvRZVx0VepXD9LlCk1atboS7NZTUARIuzeui2wYPF8T7Dt3btjO0wPn7UlK9MEefJ6iyzLkpIoEq6uxsxZ06e3AhB5C5upIklJ0un0dlEUSbvdppUkktQadWaJJcn+A4bE6fVGsFvQMkBrwq5EvHfvOWLI7RedM3vF5G3RO37FQ43nbdLmbavLOGp05j5kY2PPNRr189iDqJV6eXs9j4nZGIDz2aXzoHP378VXpylK6tuv1/h+/du/xwhwbPRvajQ1cRxvQFpQ7TrfrZs+/ZcejvavXXtU8sd+P94RhBy61Tc1qsfMWzD1Hb/zS8GuYeP2z1JTsgvg+nbRqri4CweR/vcuIWDSpBmLDx04NYDFaL6KtoeHhTaqVafKF7vQHGCqqBSkyC1ZurRKhQqF31WNCgubN2fnjj0j0F+NLjWdTpeweeuqGrkDf58aS/jUqN/27js4XhAlSRAkqVjxInHTJ03pFRDk/uEaUggcb/ed8PYTKv+vRx8dhYA8PeHvJrV8XTDNyYDalXr2YH0FTCUW1CoGOImBLNBAskcgzLj8jH0o6mWZ1oPKaCQzWLsKihW/W2boz/d+t4pt0pD/pzOAQDHAZKVCES5d6FckT+9Kt08WNO9YFVrMmkrpzekgS3ZQYdETGwGUWgV2lQ1Q97cb8kO+qnW3uwya0in3AsAFFw/AsAD6S/fj+6e9Sq1Yu1y1PpU8iD+ltn5qopKSZF2zJt+ZZaAJjVoPdgzEyDIGY6Q9MTu9fX2NyhcEcOE3bdI5/s3rtPwkw+T4SAnJErNnR8EBA4ecffnyVQmM8GNAipAFedPmdUElSvi9Iy23atf1TvyDpJIatasSHZdkDkC2SPPmz6z77beV0J0gHD5wpvn4iVNiBIkAtUYDPIdcVCKHpylLFtZmU2u1WsJut1M6rV6UZYIURZlAnyqa0dh3DILxoh2QToUf1hZQ06BJGBjS/6fevVvO/ZQc0G/3/HlC2SNHjnTISMsofOfO7bJms8ldFCVKJoCgKYYUZKT34rtwy+TQjQSRBZDsUL1G5cOLFs1ulPvwadWy+8P4Jy+KarRGWRAEQuELETyEDOoxqm/fbrNz9yUu7kadAQOHHdNqDWBTTHydbLNkE35+3g/37d/8LoofGbl82qYt28dJIgkcj3NAKRl5DEMDazELBCHT6KfFeUBnCMoPuaU6nQFsLGrSkrKZ7XYedGqNkvxgcMF/m2FRVFS16tVLXXT068r5uxX6hwy9jIYWcjhHjRo+pGOXFu+sA8d948eHLztx/EQ/9FP/0KLpitDQ0f3QpbBiWfSwlSvXzkQ3QYVK5U+vWDVTYQTkNkvPn79TdfiwkRewHwxDwMxZYU2QaO4IYO6POdNs4qTQvehGUqlIcVDIgJE9erSd5/j9S8H05zG/rT139kp39DHTIMLaDeuKlC7t/8xhcfz66/Qlhw6c6S8hi0Nk2R27txQuUMAz6Uvbzw2mksByu/fsKlGokBsGMGH8+BkLYo8eHYyMC6QrkwQj16hR4+DCqNBPJiXkfu+jR88D27buFK9C/75MSpIkkwzD2MsGlzlVuXKF4wFF/K/nz+8TX7x4QeXAzaWdIrgqAdR/mtH2dcE0Jzd/T/LZww30is+UBZAlECktmEALUrGqMGTXGfmNwddO69z4ZykpxjLfVL4asnpegzk30o9fYaWyPGMAmWJAZu3gx9kgKD1Jbk5kLXHbtbhDuczHHvmILNAKVuBZJNzqgbUzwGtUkKXlIE2ns5ds0m4p832zCeBZyuI4WV7Lst4bgH0I4L36xuPNT5LTKrkJ8t3BjavWDyaIjzqyP7UwevcccvL367e+Q/+YJMmK1onaSsSc6crCxucwTbF3r5CrskSRuOAwsONfwOf2gX0by4yfMGvZgQOH+8kSHn4YzZRh0ODeo3r37jBb8bUmJfl1aN3pGc+qgaFcFCCmGQC1is2M3n7Iz9eXsOJzMTHH24dNm7vVakfCEwkMDYoJyvN2hRepolCjFRWKlMVsA4JAf61K0RARTNU6NdjtFoVzqBD5BeSJUkrGUrsObRaNGzdgcK6FpgTF9uw53PHgwSN9rl29Xo+XRGCQ0qM8RyuuCJazgyCKio+Xx52ASZ34PS9RVn6XgQeRtyKYHo2KmqVopo5r5szFMzZt3jmapDTKAYJOXJLioVqV0kcXRc1pkJvbOXVq5OI9MUcG2G2Y7aQBUeKABAF69ewxIWRI92kOAAoPXxS5afP2YQiiGq1O5DiBkkSk1hBg1GmVfrF2SQF9XsJDBQ8jCSRJAPvbRAIcBvqiNQwmPiBvkgMXo04aMmRw77ZtGyMd6N1V+/sWr8xmWz60JOrUrblvzpypzXNvTJzfZs06xWdlZhUyW0wQERHepE6db2LRTD958mrNcWNDT1osVlIGwX7j5kmP3GYmHjxzI1aHbt+++1dkU4iy1Xr16inX3ArD5s0Hes8Mn7NSq1NLdruZnDBxbKdWrRpt+7uxghmzloZu3LBtEmrPWobkZs2Z/l21amXfBQIxmn/k0On+AioSsp3bd+CUO67LL02JfQemiqtMsK9ds6Z8cLDv/enhi8J2bNsxFg8DAFLQavSExWKltFqtfdTPP/dt1bbWpi/RFiMi5k1fvXrjz1qNgUEGCrrkcE2ipo30PDwMXd0MbEBA4Rs+Pj73SpQo8XuZMsXjypcv/ft/klr7dcFUvsIIC3bsTT5zsCGCKSOzoKFpyLKJIOryQLZvKRgXex2e0q6SzGhNNRs22BcR9kvXc7KsHRSX8OyJztOTfWvaMjwL/qwJSr1+Cg0tL2OLn9hSr7T5MajYV0CLyE3VAyerQaD0YDO4wDNGyK7SsXMYlGwWCYUKIaHaEVSgTgIwWgD/reeerLnO2WvYBQEKAFwfXC+4Ts2/Cabr1uwcsWjh4jk8Jv+gna6kTZLQsOH3S6dMHT0A/71y5ZbhCxcsm4saGZr5GO9s2qzRosmThg3ee+B027Bps6IzMyyKjxP5i+Urlj60eHF4Y3x2V0xMp6lTIzbJgh4kEbOeaBAlK3zzTfChRYtmNsYNifft2Hak69RpEWtUalfgeFHxMUqyXUZtjqSA4O1sjubJIVjiIwhsOZk9SPVxcTMq0W+VmoDs7GwwuuRRKF8IwtVqVI6JjAx9Zx5mZ2fn/XFAyIH4h88q4yGA5helaNwSUBKTc6AoqaA0kHSOj0tUmBoaRRtETQrNUgW4gYeKlYKPL14cUfetaYVdIq9du18uZPDP501mnkEyPZZbxACdmua4A4d2ejqyoXDDNqjfJikzm/VGTZpGsrnFAnqdSl67cmnJ4rlKuU2YMGPVoYOxvYCkgeUUOprE2q0kTVMS1gAQORloygAkpuvKOfxWPGCQdaB3cQGr1a74b5U0YAmAxkw+gVM05qFDQ0b17NnpPY150qSIlfv27u+NGi6jIs1nzx5Bovq7vHd0zXRo3/WZkmYFEn/48K68OK4kOUnnS/haa33bymSz2Q0yCOLMWRN+qF271uHcz3frMvz07dt3aqLvtmr14L3z54f/gMJzgNjKlbtGLl60ZDb68jHCHj5jeqP69Wsc/lKN0XHf2g27B0XOiVqkHLKsVZ4xY2rrhk1q7XZYEgimx46e64/WjYoS+AOHtuX5O18HzgHTjTPf0v0sG9ZvKr1ly/rBO3dvH+mi0wt2u50oWqz43UcPHpfBZANcP/n9fJ+t27guOE8e4pOfds8dYN2xY1fPRYuWTWPtsqfVyjGylBNTsFpRgcjJ+MrhF1MKt9ZmN0PhwPwPmzRrvKpvrx5/mQ34MZl+VTC9umHlcMPlIz/pXtzzd5UsQApWkDkB9B5e8MosgsW/NPx6/CY8V7uxjVu0jpo4ZawSqcV0yAEXX7x+oPFyz7KTCpFarwJwTU2CqtY0qJV870bQ8Y1ly5qegIp/gyloIBGuYAI12PXu8FptSKnw48ABkD/fQcivEgAqvvN3YK3U1wAF1118sTveKhXLUJGgEewQRAinhtQq0bI28enI4McE9uDBs8LduvSK53iZUMjQPK9kyRQuXODeju0rMLNKHDx0/P6TJ841QXI7ugFwJ44aOaxz2w6NN794kZ2nSeOmqUiAx4gpckeNrlr2xMmdLqihTJ02c3n09r19QTIomrcSY5dsMHp0/0EdO7ZY7NC69uw80XHa1NmbRdAChemIAgu8YBF1eoazWE0UCbKk0+rJnDx5xYRX0TTNixJPK6DHAJgtWYRWR/MWs5Vx0bkLkkjQAKRUtWrFAwsXhb0rtt2hfZfrz56/KsvaBZAUdoFKGTNquJSUQ9A3uOiF7OxMmlYxQBI0yCTJiYKsynE/4ZWTKopgWqVq+dioqNnvAlAOOTdo1OF5errVH7VBzm4DjZYBQrJKoVMmtG/atP4OvO/ChZsVBw0cdkXv4iFlpGeReA9nt0LxYoUfbNu+SqlX4Ghv0qRZK44cPtEHTXYglDoFkt1mIfV6HScJnEoBY0KnaM+ClKN1ImCiZoqpsqjNoNaKDAkVhQwOjPNImDgB3bp0mjwwpF9obm3s0KG4puN+mbAPwVQQWXHevLl1a9X6w5e4cWNMn7lz5q7AGgJlygSdXbUqqmZuzfWnYdN2nTl7toUk80TL1vVXTpwwpq9jLCkpskv9uvWzdDoDwfEW+aeRA/t07tx6dW4wXbNm99D5kYvmYSIFx1lhelhoi8aN63w0w+5zALt67Y5B8yKXLFLSXFmrNHPm9Nb1G/2RjTZhwvQlx46e729l7Qim3KUrx41fGsnH9+YGU0kW+CpVK5+6euVyPfT5Y6DP39//etTiFTXXrVk9Jnpb9ARkX+Fh3b5dqxljxg9GzVWpi/BXhwSC6+7d+zudP3+t6ZXLv9dOTU33RmaARqMRs7IzKIPeqLhyFHYNKYEoYYKlALXrfhc9e+Z0dBP+rQIwXw1Ml8yZ/+vBJXPGTqlTgcmT+phGMKVEG2goBtItLBBGb+ADK8CgrUfsHX4NC+3Q64+86RuyrB929XXiJZvGXeXqBryymSwQIJmh6OtH8IMt6UGp2I2Fg9IeMAbIQtuCyJANkKVxg2y3vK8rDRrRHrx9rhH5yirViRx0hzsA+icAQXNir619qfINsulcwUoIYLSnQz2jZkPvMt4/1vhMDvKnJqt5847xr1+lBqImRyM3UhTBZjPD0SMH8mJBjCrVGmaxdtGIp6qM/lJShG3Rm3wCArxeIxi2bdvr2ovnKWVkCaP0LOh0agifO6VmzWrlztZt0OJFeprJj5DxY2OYZ86CSi3D6lWLS+YugnFg7+m2UybPiLbg/JMkqHED8WapeLHAu9u2LamgrAoAXHRcrqQAnG8mB9kA1VUhPT1dj9oR9gv//vZTvBoH9zJq4bJf16xdO1kQMJCmAorWKfn+Lkad3WKxaPJ6GNKKFC58pVz5MnFVK1c9BTRpzZev+F0fH2B37YrrOHXq9A057Cz0SCGYilClaoXYqKgZfwLT6dMXzt+95+AQTvHdYuScBZrgoEGjOuumTp2oBFoiI1dMXL9xS6jiJiEooJQ0Tg769e05eWBIj9DcczZ37rIZq1ZuGE2rNEqygcmEGqxGqFSx4tFOnTrO1moZgbWwJEFg3jpmjhECJ7FIQOHtgow2hcCyvJbW6OwoHIIgBZIUSbPZpC1Y0PdJYOD7KZBZWVke33/XPM3FxQWystOhT5+e04cO7T/ecQAOH/rr7rhz51rgAdC69Q+/jRgx8FfsLwZHfX19rXv2nO46aeLk9RotDa5umheHD+/BwKRy7d17ptWkidN2orXB8RZ2+45NAYUKeb77lhrKJibmTPspoVM35yRtiPKEiWO6tmjRcMvfNfOXLNvy0+KoFRGolaOZP2deeL2qVcuecfRlwoTpy44cOtMPXTk0wfGXrhxHReCLPxeUQ43aNENJZmFISRA4VpYlrVrDgEGnebBu3dpvMf6AMYoeXdvfSk9PL4yc3NS01+yuPbsqBwX5f7Ri3Nu9r9RN+MC9gtMnZ2aCy/PnzwqnpWV6Pn/6pHjCs+dB585ebJWZme2NHGK0TBC00W3Xr1+fKSEhfUK/xK3gkMtXAdPxYyatOHLgQOtCsskQ2eLbNPvNc/nyqSWgBBuIrB2A0QGndoNkjwKcuXKDsRX7hrwX3MDPlky8lvr8gp02yDo35J8DyVuggJQFpdOfQe3XDx5VvbTXs/CLO0YNl0UIGi3xTOPGaUqVu1W8c982oFGngI+rSBBF2devZb23N9ivA7jcFqDawnM3N6cZfNwyRTcQVQxYeTMUkE1QU8za8lO1Ej3+Lj0KBTd+fPiqY7EnelntGBhiQG/AgiIm+GX8mK4F/AokDBg4KE6vdwGTyaQEdHDj7dq9PvAPjSli2aEDx/rwvERisQ0gROjRs+PE5k0brmvVpuMzBFG1yqj4+DDQ4OPn8TBm99riuQM2WFSid9+Qi7Rah9xPmWMtBOZXqzVU9umTe9Hf5nBzKP5OXJg+PgoP9E9l2j5Vvg3f16hh81dpqVneosSARu2iBGbQ7M3r7X5n6rQJw6pXLnk8F7/2PWrRnr0nukwODd+AIShHZpYCppUrHItaMqPeh4fV9euPyvfsNeAaaqYqlUoWRZ6QBTt4eXlmHD66My+CQs8eQ87fe/C4mtXKAs0wssTbCbWakqM3bCziiOI72l26dNPYVSvXhPEiAQSpsAREjrVRdevV3Roxa0zH3FplgixrAgjCnlvGSGNypL2+PaBxfB+T37t6sT26Dz734MGD6hzPQuHChR5s376uhKM/1as1YXnWrsJDYvPWdcVLlCiM+ejYpjJXzx68Lty2S/fHaIIKok1Yv351eUyKwD5Nmjh3+f79h/vIogTBwUFX12yY/x5dCZ8/c+L374f99PMJnB+9Xi126do5dNCg7lNx7h2+9r/S5vD30CmRi/bsPjAINXMJ609sWo59feIY+4QJ4SsOHzzZB2syEJL9H2imf4ApWmZ2u0026FSEu7trwoqVKyv7+blgHEMJBu3eEdth1qyITTzPk+h+CSpV4ty6dYtrfYZZ8m4uZDlRC5AfZSvm2g/vitTICbKGCCDsl8/Hf7Nla/Swk6dOtMN3YCaaDAK7desxt0/VA/mYHP8jMMUFNjhkzN4LcefrubqoswxvEvJMrVeec0+O12jtGeCqIkBApz2lAQuoQVXmm6euA0JLOqpG4fMJycmeZi8vbkDc8zf3NHkZOxafwHOEM4GfNQ0qmF5AtefXb5eLO+BeKvu1TksLVBajAXNAyauleg/oTQRUf0d5QN9TOvjgYjccT4NmO28/mvCAVhVlPfJDejbywUnQa3jwtryB1m5UeI8SvpP+CZgeOhrX9Jex4/cheR/BFDVTrY6WK1Uqv6NQQMCjLZu3jcXIuVLWjRChRctmi8aNG/ouoHP48Jnmo3+eFEPTaiCw7JvIQXDZoLjatb+PXrVy7eysLBPN0Jgeii4CEZo1a7B0yuSRij/WcSEAVq/S0GxhBbVGp5XtVgviBQZ6xA3rVhb18NClODKRcptFDv4cbtCrN+9W0VBIcFBz7u4GkyTRFoYxskj5QRMpJSXFs369Zq/UKgMIggpwvAzm+EsCLF68oFyFCvlvfC7oMGX63IjdO/f9hIkUCqAicsgyVKmCYBr2JzDF3+s1aJOUmZntgymoNE3LIPBKtaOF8xdVcffK+6p7t26JZvRl0gwwNCVThEh45nWP37t/y594nUcPxTUdPzF0H5b4Q+EopfW0GvDwcHt18MCG/G+18Hcmoyw/UuOB/FbDUf5+6dK979zcXJNxM7u6ur/W60XRzc0N7QHcoH8yNaOjD/X9bcpvy9UaJeuL37p1SwG0SK5eSKg2cPCg83abBbzzeaQfid3l+aHGiHPSseOAG48e3i8DhCwOGzZ4ZI8e7edhf+rWaZths7JuVotJ7j+gz+SBId0mO7Qvh6/w+fMU386duieazVYStcq6db+PnjFzYse/o5niuuraPeTcrZsPKiMoe3m4mo6d3IUZfu9M3kmTwlce2Heyd04Q8p+Y+TnppBgYQjClacKq1zKpK1YurlW4sC+yBt67enQbdPru3Xs1GRX6Nq0wfPjQkB492kV9DNDeHnoImEp92bcWV05wI4f/7Pj7nwqm9+0z9uCtm7caYb0Kg4sOpvwW2qhOnYpf7HP+x2CKE9m504+xD+49qkkhaMi8ydvyRhvR4ptk11f3fTW2NKA4C6gZGsysBLLOHcTAckkefYeXI4pWSHkbfECTU74FYBh+Jv7lddqotbvmBRspg2zJgECwQoVX8VAn/enpAid2+5UmbKp0wSZ4Ble46telx0DCt5KDiuRQ7cnzAIWPvOD677iXMMji5afLVmkh1WQHtUGPuAS0LRN82WToHeT941hPt+VfclJ/eA9qv81+qJcKBKNB5EcwxUIVXt55X3p5eiXdvHmzsiPCTcg85ls3bNDgmyO5gFBdrmxtm1ZjINA3h2AhSSIUL17swqNHj6uhj07J21bnZEnNXzjnu+++qXD6w3506zLg4qOEhCpZ2WZwNRoFnsekXEnu1KndjNE/D1TKDL6VM/kCXqj8iZzPxeCCe5aa6t28/g+JIBAUatF4ocYkCnZuW/S2kljX8tatW0ED+/90WxRo0m7PYQNYMJjESPKNG4eRF6v4JzFjK3cAwrG5W7XtdufZ06SSf4ApBqAkBNPYqMV/NvOxrbCZCyK3R+8cppwjBAUkapUEBe07dpiV3y//vRkzZq5Syg9QeFCBklHVskWzmT+PDhmTS76KhoxFYJo1bWASZTyw3tYsJQmlIEnUooVNv/su+ECuZ3AtIkBKjv5v33Ww029Tpm8SBBG0Kq1S+ATNd62Oybx8Kc79g8MN9xIZH5/u061rxyeswCmZlpMmTur0ww/f75wze82ULVu2jUF3TM1aVbeFzZj4Xn6/o62pUyMX7N93YLDFjkHHbw8tXhTe+NbDpKAurbvc1erUqJwIa9avDv5U3dOWLbs+fZX0uiAyFfLkyfPm0OGtWGAE3TrvNOBPrXkc96tXoG7avK4F6WRoWpcJKn5q+arZSnk/xzVpUtjyA/tP9BUwKEfw/1Az3TgDD1jWagXvfHlS5syd/W25cu8XO3Fwa2/dehjUpXOvuyhP7BOjUWeuWrG8WNGiPim5+/X8forv0bgTXex2m04QOKJAAf/HrVo1Wp/7wH+7H3CucP2+lxV46tStBmNHjzuMAS80GIcPHzC8R6+2ymH2Jdc/AtMnT954DwkZeu7N65TCBMGAVq0SzVmpUmEwSTMaVUmCRxcDdGwG5NWrlFJmAjBgkRmgg6omuvUfVoYIrKRwO1FjgvR076237/fYRrqFXgA9naoxAsdoQE1J4GvNgHJvEkx1zK/P+V84UNAj8xVTtGbVtfma/rAYfCoqOedvFz99B4A0AfgeTLT+fCDhVdsUYz7vZ3YsoaQGRqsBLE2J36Ry4UxQBLLNAyoVbtWDIWK/REgfu4hpeuIAABsGSURBVKdjl/7nHj9+Wp2351QbQnqOUvFIrZaQ/K1UcBJ5RTM9GrvzT7U527f78W78o6dBgizl1FZEP6FKzVqtFjWCKwYRkObk6q5LP3ksxutjZs3OnQd7hM2YvYYXRSCknELQGGEnSbAtjprXuEqVoHdE6tw+URzPj/1/jrl+/U5zQOqIUrsTqxYJ4O/v/WjHzk0l0aRLTEz1a9G81QuKxOo+WiCwcIaGApM5FaJ3ry8eFJj/oWOh5k7Lw/ZWrtkaEjl3wUKGxiCaY5khmApQpWqlI1FRM96louaW77Vb9yt17dz1slaDAE8BJdEgiQQEFi7yKI+nZ8LVa5cbqLQqIT0zlVZh1RSJh3XrVn7yu+s9uw+LexD/uAbWLcUcfg6DJioaSgYVu7hhw6Jab8nZCKCOA1n5b3q67NqjZ5erKakZgUh5RdIjZiyZzOnQsHHdY5FzZjb8lKnZvl2f+/EJj4vjuL/7rvb2uRG/tmv1Q7/rT589LYsFWUaPHtG5VdsG7+of5D4ETp68XGfEiJ+O0io1qNXa9LOn9+aNito+asumjTOyTeng55cv8cDBbQVyZ+vklt/s2Ytnr1y5aqSHuzdg8e6wqdNaN25eY9eX0paWrdgyLCIiMtLVmEfR5EcOHzKwa/fmSxITE7X+b7/dNmlS+IoD+4/3kZG3m2Pmo8/0i7804EgnzSHtk+ycuTMbf/tt6Y9XhXs7L4sWrQ1du2bdJBFy9lu1qlU2zZ0T+i7dE0Hy6dPXBVu17JyAQSY01z093RMPHY5GWaFmqiTFfGB9KDEER99jY682Gzt6/F5UhLDc5bARA0N69WrzUQ34Y5jwj8B0767YljNnR+yy23IKdnAsK+vVRHZ+Ph1+rVUy0zM9oaDalgwGSgLBbgMOSdtGLzD5FE30HBJeDOuZKmCa+cz9xpadW3bee1zyceM2eW96FNC8Fo1gZ1yA0qhAk/oKytiSk6uYEq97Xz5i7FyzYlSemuX2glummSBqv/NdIRsgE6Do+htv5p1n5e+ekwxtJ1RAaHRg4ziFD6lFgLKzoDUlg7/5TdKiZpXKVSCI9062vwOsq9btHLpwQdQ8hkS6hVWppanUtHxbfBbzrJFyUaigz63o6NXBH7Y9d+6qGWtWbRhNMqjZSqDXuSoFR/BCnxmCqc2eDd98W2V/1IKZzT7Vt3oNWj+zs0KBrAyzMheYuok0JFnkzG3btljStn2DhQEBARioQJOUvHYtvnLknPnz7txLqIKVgTQM0pdQDRRAEC0wbMiPw3v17fLuNK7zvVJTNQ+a+UoJQUDqFQslSvvHRs4Kb/NhAWfctDu2xfaZGh6+UKPRq9BczwlAYTRffAum5Y9ERc3+KJgiqDVu1upRcnJ6IaUuAdLfBFA4/BRDSxxnJ1U6Giw2Exj0asjnled+TMyWoE/J5/LlB1U6dup2Ue9iBAZ5tqKQU5zbbIKq1aocHDZs+PASJfzQVaSYsQiQ0dGHuofNnB2porXuFrNdoX5hKXw8MHV6RpowYVSXxo0/ne8+Z86K8I2bN47BeXVz80jbvHFnUKMGDZJcXFxoizkD9h/a4+lI8MgNpA7FoHLl2mYJKLUsUfZZcyJ+2LRh09jbN67VkWUe2rRpMW/sL8OGf2q8z5+/CWzVqv1DWaJJtUqLacyvdu7aURLTMP/q208vX770b9Ks40ONRq9BzVSSJGts9GY/R2rxH5pp+LJ9e2P7If2NISTu0tXYvwmmOemkCKYMBdyChREVqlQp9dmvXyCboV3bH+6ZrDY//MqFR9488szZv9XCoG1uWXxfq82rzExTPr3OBTjeys+dN7vut9+WOvOxsf/hJknQABRiMfNq6+a9w9GdhVbA/IURNStVCnyv/c9hxD8CU2ywcsXaslJURKaBoWg7I3Kca2aiOrx55WdeafHFNFlvgBFyOF2EWgepFgG0pSq/cB3wSwXFzH920/3UhjWr+EfxLZM8Czw+V7ulx1mXAu5ZKm/IAhXYZRl8VDLkz3iRXIlNievjp10YHGyMA3ghAhRhAPJj5JnFzXsaIHDdlVcrrpj5Wk90RmANbsDZ7EotT4bGLQkgZmRBfpoCLzbrcaeKhUMHuRIb/g54fngvZlq0atf5IU3qSYrA7B7MKMLydJg58zbF0WaBnj06zRg+vO/YD5+P2XW8TfiMudGCLBE2m12pXI8OfzTxtVo10pZAq6Ng+PCQ/l06tVr2qb4ePX6x6egxY/epKC1wHFYrySmkosZ8ft6OJrmQJ6/HKzT5Xie9DkzPMLljJJxmDDnArfBOzaBSk1A40P/e3MillXIHK8aO/m3TsdiznQByOKNW1qxQgxg1h0WordUr1b5cokSZMwwlE2mZGX5XLl+qlZycXEAiCBq1bTzl311/UKM+CaZ47+RpM5fs23uwP1bMwqQpg95NicSjHxCTDax2k0JloSkZunXpOG3YsH6f/R7WhIlzovfu3dcWtXaj0fAuMJhD5BaEUqVK3VGpVBY7xzH3794tQ1CMRq83ABY4Uau1isWB7gmakaFQgP+drVtXlv7c2rl69W61Pv0GnMcShzgfjRo3XXziyKmBFqsJShQvfHNL9JKyn/teUkjImKPnL1yrS5IM36zpD2t379nZmyZlkiQlmBE2tVGdT3BHHdrnmDGTt8cePdUGTX3kVhYK8I+dO3dyK4cP/WN9x0LmISGDjienppdQ6EISBd27dJ45YmTvMR9qtZMmzVxy+NCx/pgUQhIiaqaGL6EqOd67dOmmUcuXrlVqAPOCTYrZu61owYI5KcCfuw4fPtdy1M9jdhmMblgzlfLx8Xi6aF9YUACRo5zh9dvkhQt37twbomI0siByso9f3kebNq375lNVsxyAGht7otGYMaG7KFKjwXgFgJwddz7G9a/6lPv3fwym/X8cue/WrbtNsy0caGg1ZyRp3j3rBTG5ecXr+qc3avjYM5SqUaIKgKcoENFU9Cv6wtC7f11Q6VQ3ls5bRWam+tAy+P1uLJhwsk7vvOfzlTEmq9whE9VsyQKeDIBnWpKlWzH/+Z39NLMKfkCwR0pVAkD19eeezb/LQVCWIS/8P+1dCXQUVbr+q6u6qpd0ekkiISRsIYRAAAUGVJTdBRDECSCLwCCioz5ANDDRxxKXQRbBBVBkCyAjgiAgSAKEKHvACIKRJSyyQyBL70utb/5qwmOYLI2GN8k7t3JyTs5J9a1b363+67/3/t/3lTJG8EkABg6LcjFz9kKkVgGzwyHW8znznu+Q/G7rcMj+PRtPdwLbu0//U1euOpog+G530B4EeeU4RTDoObVubfq0dx/v0ePB7Xd+FqXqevUcageNlpZwRUsOqrzjJpKqOK9IwHG08PXatdFxcWZ1SaOi48OPF01dunR5OhbJI/3R5XLfUowv+0yQVRKkdgbV8FEgWlIZWPjC43mvf/mKjIdatGh45PZyEHxp9O3TP99qjdKh8DQKaKhkAEEIFu4HZKBZrbqcwWPkg+DaJP6igjtmlDgOKKKCZScK8PDIIx2y5n7yd5WkUN6xb9/hh1MnvrUXHQOw1ha9t5D2if3mRUGlfSooda0I8MXCBUmt2lVuE6woiu6xHinH7HZHIxwf1XnALwDDISMMs3Lc6Q/+SkJQIrGsWB+nixzHqpmp01kifbX6H22Tk/+XR17RPXTv/rTH6fAZcImCAi2aoWDRBaQMeGr6xIkvVWibg4Fr4cI141Ys+8ecQEBEHAOCIHDIzmI5jXfvvi2Varxif7AK4dVXh+4tulH8AM52cPknItJW1K1b9yX9+g2Yl5AQcenm1Fc+dOBCm6ytW0Zt2frdaJ73M6pPGKeF5OTkrCVLPi53jKZOnb1wy3eZo9V7V3DN9Ac1mJYncl4ePosXr05dMH/RLHxGZCUgLluxuHVyckJIrsEvjHxt289Hf1G1WvH5fWH0sPSXXw5KEOKyYUlJib53n+eOC7yEalGCKPFai8V6+dln+8/t9eTjK8rKyY4fv9qwqOhqk0M//9Lp9JmCDrtydnbXaDQ0fof8fq88ecrk0f37P7H0/ySYZmbu/HPaxLfWMYwR9Cwnii63EuW/EZg1pNNP4eePdLZevwg6rQJ+KQAy1lvKLBgbt7gE/QdN3PP5Z2lJnFjfXXiZFTijIb9+27NbO42ul2VoxDls0VCKG1qcAibJB3E+j79fbOSCAfWYd26nfu7xKDGFBmiy4sCFhQU8nVhkNEEppQVR0auGdbibQAV8YKT9ECE5lVivPe+VLq3H2wAOdA3BxTEUEKdOfS/j2y07/iJKDHDIb8cqStUHQwYZhaAhANnb1pkqygiGDHnpp5MF59v4AzywWmQ7BS03sE5RFnmIiYk+tmHjF7fk5Crr09Jlq8fPnfvpNMAFEi1muRy43R41eGIGhgdmvZg14xJCMFjgtJsHSRbtn3wye8Cjj7Yvdw1ZrT6YmLZWy+hYDG6Y4SGzCq8hYRasQ0V6XAaX1L/dbqeakTao3+jixYtX4pDRhBJ4uJyANhbtO9y/e+GC2V0q22V+pGNPp9PjNWHRPGbEws2NujJhbR5ZbLHR5zZ+k9E4lFrA8+evNU5NTVt19sy59rjhhtYrFEODJCsgyKi2oFGXa/ALbrFYUEE+6Nel14MPM2FZCsyeM7Nfjx4PZ4XybKSlvb1yR/buoVjtgdNGfBEg4+yLZQs63F+Fo+3RoxdbDn526FH0lccyMaTiqqynB9tumD1nCsoGVnk4HIptwICUPSUlJUkCWgZpgzMWXNpBYRiW42Sv26ehIUgxRkt1FF7mOBqaJjbJyciYh4LnKnX5ziM9/YPPNm/67q+iJKh6xZlbvwm/GwbUos9XvzH3k/kf4No1pRFhxcrPE5OSkipU2r+tTpr+9dcLicOfG3ZUrzPRmLQIciCwdu2q5CZN4k7fDKjsgZ9+bf/S6Jc3Mwxj1mhoRZIkimFYv8vlYimgNSaTyeP3+41430GWHqV6cKFZpaxISrdunb+YMSN9RJUg33HC785MsZ1n+gw+VnzlepIsSqBQ8tUl0yaMjTy7q1/Jro1DGysCCKU3gDaagNEZwO8UQG+LhqsiHRAFH2fyFQKnZ4RSo0WbbWx49WjKW2FZ+gamSxoD8GHhgHYmFlmA++zFpQMT6q8cUZ+elEAFqWT7FKVeHkCvFXvypxQqplifwQLFlAwKZwDWwIHgAlBKHRB/nxkY+2UhVnTsn/Bo81eeADh+N2UiVYGZk7PvidS/pWWhDFzQ8wZVkXC6jYW/PnjwwbY7F980OiuvrZkz58/6et3GVKzBRPZHMMCJ6hfY5bDDoEEDP36zkvWxO9tE75uPPpo/a8/ufU9jAFLf3shzD64FBjNG1WWkbNhFoW27B75LT5/6clWKPLm5+V0npE5cw/NiJNqEYI6LAVPNFvGhvqmmRKOEPcjQrVuPjBdeeGXK0CFDLuJ0P3g+pRqsxcZFH1+3bmXzyvBNT5+1NHt7zki/EKx2QLsRzE4DQnANE7PH4cMGT099veIs7872MeubMWPejNWr1/yXImt0mJmiM2mZuRoGGdSFtdvt6s49UlUVUcLd5sMfzpwxMjGEjLTsmpmZO56ZPPndbzCY4hjgxECn17r27tuMfPpbLK2KMOjc6akiSVIi8JnCAynAk6dMGj5w4JNfVPVc3gwqOMjshAlTvszN/bFXqcOhs9ls6gsVN6bwBavqNVAsSKiFy+CGaQD6Pt33k/T0N8aVtVFeXydNem9xVta2USqTjlKEvftyUFWqSkZSWb+XLPpqwqeffjYTxxNnKkszliRWZVty+z3Pen/etJVfrnoTvycMq4GkFgk5iz6f3/32c06cONtq+vRZM48dO9lVEAQWtY7xRVz2PcDZEn5eFf3xoxIYhxm5/bnnhk4fPXrIzFDG6M5x+EPBNHNz9qBpk99epShS0efLlndpboTTzuyFGe7czMFs0UWIRAdMhQWfFwthDcBLGhAUHXCcApxcAn7g4SoXDruszYp+7Jtq/MGSqD9HGYC2WcHt9YKVEiHG47mW0qLuku5WmI2zTBOAdadLHrw8//iEQs4cLWgjwCVRIGChP6sF2esDE82A3uMFm+AWksI0e4a3iX29H8C/TF9DeSCrOgeZK5PT31+vKBojULTk9fj1JqPJLUmiVqEkqWuXjhuGPzfgo4rayc098uC8eQtmGU1hvChIjCDytCD6OaRrajVU6dixr6W1bp1Qrq5lZX375ZcTrbKzdw/Myc4ZdP1GcXzZQ4RuxzhtrBtT50SXLl03dO7c6dvWrZv8HOqDg5tD33yzdeCO7Tl/OX68oIPD6UIaoRrsdDrGE1036lTHjg+t792756rGjWN/O3Om0DZ50pT14WZrwOf1GwwGPS9KPkUQvf7lyxaVuwFVdl/79x/qMWrUi5tYVqcLCIJiNIYFJElEBSBeUmS9z+fzrV67qn3LpqFZI9+OFzKVli1bM3bbtuwhVwsLE9RVFhkFTmQUZ5Y8Hg+tKIrQuVOnrJQ/9/usS5c/3bUFMK7FdejQ+ZpBb6b0eqPLYrbZW9/fIiftzVcr3Dy6vY9pae9kZGZuHYa70DabzVlYeFWzZ8+22MrsNyp6Jvbv/7Fj1vacIQcPHuxdVFQUJ8uySkmjKI2skRk5Njb2ROv7W2cOGpSy4E41pfLaXLhk+ev79+zro+C+oMBLcz6cmXI3memmDdnPrt+w/kUFCfP/nAO8NWnCXxMSEkKWw8RljA9mvbXYbrffJ0g+lmO10pgx48a3aZN8S8avrN95eUfabNy4aURe3uHH7HZ7DM/zZpqmRVlWZFGUaKvVWtSmTZvvmzdvtrNPn+4rK1tXrioe/KFgio2PG5e67vVXxkxokNjgrHLqFCd8n7Hs4tavBtlkJ1iAAdmFnuh68GFhu8WqihAj84yhSsFNieDgbHCk0cPnNj30vGWbKdFSZI4CH6cFGgKgC7ggVhJKujWut+zRSJgVBsDsvSyM315w9tkrkbZ61yQtgGwASsOCSEmg0wCwvBcsKODLu68km3U7+7esO7URwPnqWCOtCszq/H+o609VXVM5pXBHPKeb+JxuS1RMZGF8fOz5u8kiKmofN1BOn75cL+DiI3ThXEl8fMylUINyVX2u7P9l4ijVda0jJ84m2guL6giKTIebw9weu8tsMITZ27dP/umPXuP2MaxqJ72Key5X3Pv34IjZ+fHjZ+MdjlKbJTqisFnDhijKfFcc9N9z3Ts/E2qpVnVcq6wNfMEdPvxrE1mWdGZzxHWTiSmNjo5WKejVcfzhYHpnJzwfvbGpOHfLU+GyAxi3B4ySRWUJQRgHpfZS0GkYdTeY0nrApVHAZ64LG+S61/IHv+vbZm7a6AoXDm40XtN4QSe4wOB2e55sl5jRzgDr8864B+SfL02xc2FRl/Ua8Cs0aNgwoFHBCVXcwQ9myQNRoquwrdW4sW/zutOfoChVJ5EcBAGCAEHgXiJQrcFUuXbNKH09f82FXWt7GYVisGJtp5dD+QxwolC0UQ+cTAFS6phwLVyXJSg22GC3udnJg71Tw/ZHtar3G4p/6LB+zQUseCFMVsQOzev94L6uRJ8+cT6RMcRonRINPqxeMNGALIyAMwDRHAUG1w2w+otOPda0/ppeDazzO1HULSGIewkiaZsgQBAgCFRvMP3tN51705LV1/d+19emFIEWdSapcFAECQLszdIfnwQi6iRaw+CcqECxJfpa/GvTXht3XjfnoK1pTBGjAy+IYDBIIPhRE5UCGoUvGBYEPw0cEw7ItQ7g/ooWgFcEsNAKWOw34D7eceGZds3eb2vWfN2DqtqNkQw/QYAgQBCoLgSqN5gqCls0/+0tl7O/7p6g44Fz2QEEtBXhwB8IFl1rmTBw+kWw2yKgOKruxQdeeH30maZtjr2R5zr0IxcZ6aA0IGhp1QZZtZOgtKAz6MFVageGNoBRy4LHC6BR62p5YBU/2AQnxAvuA/1aJnzUKpze3JWi3NUFEGmHIEAQIAiEgkB1B1Pm0uKZC5x5O4bVsV9hda5i0COFD/3SUYfR6wWnTwYpMgbccY3PxQ8ZMQbiWuYVRDUUxx64duZnTXi4CxXWmWAdJI98aNUaQwLQq2koaCUKdAyAn/dCOBMAS8ABhuKrxyb0fOiV4RQVsqlXKOCQcwgCBAGCQKgIVGswxYsql07Fnlox90PPwV1Px2pBi4XzCqrAo8CExQp+kxV8deIKmgwbOQzqNzgDpma+wwDGsbmFF/KZcJ0H691odBzF2ksKZFX8HWtXJKBYGrReAFrwgcnoB6boHNxPS9njHmk35nGAguqsIQ0VQHIeQYAgQBBABKo9mKoB9bfDFnn3jjcPZ3470qaloxTeD0aOBbssiXxMXEHLES+OgqQuBwHOsZegIXUBwDR+f+GFkzoL59VqQKAUYBSki2GRNw18QAHKSIGGF8HklUEvOIGTrkD7aOPO5xPiX32SoioVSSBDTRAgCBAE7jUC9ySYqgH12hEjHCtI2fLlync4UBpoZMkV27z59wmjhoygrA+gK7N6YL3ZYYCIMbmFp07qbGanlgJepTmC6i+Eu/VIf5RBBI3TCY1pPVgDpRCrK938/J9apfakqFsWyfcaLNI+QYAgQBCoCIF7FkxvBcszeS0PZW9/z8Byhc16dh9f5tN0e4cOKUrU+L2XTpxgzTYHQ0GAogHL9tUfhgK/xwVa2gfRFAURxW5Hp7jIrJQk8986UtS/qXKToSYIEAQIAv8JBO55MA3lpnIVpc5/7zp5oYAOZz0oi0aj+IAxyGmWRQjTCmBQSsHmcZx7ukHiZz3qaxY/TFGVKimFcl1yDkGAIEAQqC4EakQwzVeUsL9/fyT/LMU18NJ6CDA6EGUDBEQR2H9qOOoVt2xTHFeeSE6amRih/XTgf4D+Vl2Ak3YIAgSB/58I1Ihgis6Qe85dH3n48o3HXJwxTGC0rEekKB3LemnR66lvCctvVse2t6kRDrajKNXyhBwEAYIAQaAmIVAjgmkZIAcUJYIC0HoAdD4AgwaAtwC46gA40Ia3JgFH+kIQIAgQBG5HoEYFUzI0BAGCAEGgtiJAgmltHTnSb4IAQaBGIUCCaY0aDtIZggBBoLYiQIJpbR050m+CAEGgRiFAgmmNGg7SGYIAQaC2IkCCaW0dOdJvggBBoEYhQIJpjRoO0hmCAEGgtiJAgmltHTnSb4IAQaBGIUCCaY0aDtIZggBBoLYiQIJpbR050m+CAEGgRiFAgmmNGg7SGYIAQaC2IvA//Yyc0y4WOOwAAAAASUVORK5CYII=;" vertex="1" parent="1">
                    <mxGeometry x="316.27" y="370" width="114.46" height="26" as="geometry"/>
                </mxCell>
            </root>
        </mxGraphModel>
    </diagram>
</mxfile>